<svg version="1.0" xmlns="http://www.w3.org/2000/svg" width="1024px" height="1024px"
    viewBox="0 0 1024.000000 1024.000000" preserveAspectRatio="xMidYMid meet">
    <g transform="translate(0.000000,1024.000000) scale(0.100000,-0.100000)" fill="#000000" stroke="none">
        <path
            d="M7100 7988 c-176 -134 -453 -320 -623 -417 -167 -96 -423 -218 -577 -276 -69 -26 -126 -48 -127 -49 -5 -4 292 -865 302 -874 13 -13 265 82 570 215 94 41 176 77 183 80 9 4 12 -162 12 -811 l0 -816 115 0 115 0 0 -51 c0 -43 2 -50 18 -45 89 26 237 58 512 111 l325 62 3 271 2 272 290 0 290 0 0 55 0 55 -290 0 -290 0 0 1165 0 1165 -342 0 -343 -1 -145 -111z m820 -2273 l0 -45 -140 0 -140 0 0 45 0 45 140 0 140 0 0 -45z" />
        <path
            d="M3530 8070 c-370 -26 -689 -118 -901 -260 -137 -92 -286 -273 -363 -441 -47 -103 -83 -223 -108 -359 -30 -165 -30 -523 0 -690 40 -222 127 -432 249 -602 73 -102 215 -245 321 -323 l82 -60 -255 -3 -255 -2 0 -60 0 -60 540 0 540 0 0 -230 0 -230 435 0 435 0 0 -355 c0 -195 1 -355 3 -355 8 0 1046 300 1070 309 l27 11 0 350 0 350 -80 0 -80 0 0 75 0 75 195 0 195 0 0 60 0 60 -200 0 -200 0 0 -55 0 -55 -645 0 -645 0 0 50 0 50 490 0 c270 0 490 4 490 8 0 9 -128 104 -225 169 -152 100 -280 165 -595 303 -268 117 -510 236 -590 290 -73 50 -174 158 -206 223 -54 105 -66 155 -71 294 -9 209 23 320 119 416 91 91 217 127 446 127 158 0 227 -14 340 -65 63 -29 84 -45 116 -88 81 -109 131 -246 143 -391 l6 -79 166 7 c145 5 280 14 635 42 l89 7 -7 106 c-16 258 -88 523 -205 762 -168 340 -472 537 -931 603 -134 19 -409 27 -570 16z" />
        <path
            d="M7663 4890 c-390 -75 -513 -107 -513 -132 0 -16 -9 -18 -71 -18 -38 0 -90 -5 -115 -11 l-44 -11 0 -379 0 -379 45 0 45 0 0 -535 0 -535 -45 0 -45 0 0 -250 0 -250 285 0 285 0 0 -35 0 -35 340 0 340 0 0 825 0 825 -205 0 -205 0 0 50 0 50 125 0 125 0 0 440 0 440 -22 -1 c-13 0 -159 -27 -325 -59z" />
        <path d="M6840 4895 c0 -18 3 -18 60 -1 l45 15 -52 0 c-41 1 -53 -2 -53 -14z" />
        <path
            d="M1950 4225 l0 -65 -187 -2 -188 -3 0 -105 0 -105 188 -3 187 -2 0 -241 0 -241 23 6 c12 3 47 10 77 16 30 6 96 25 145 41 103 33 711 173 799 184 33 4 70 11 83 16 l23 9 0 280 0 280 -575 0 -575 0 0 -65z m330 -175 l0 -100 -160 0 -160 0 0 100 0 100 160 0 160 0 0 -100z" />
        <path
            d="M5320 4161 c-47 -15 -289 -85 -537 -156 l-453 -129 0 -338 0 -338 -575 0 -575 0 0 181 c0 168 -1 180 -18 175 -10 -3 -51 -10 -92 -16 -106 -13 -722 -155 -800 -184 -36 -13 -105 -32 -153 -41 l-87 -18 0 -53 0 -54 295 0 295 0 0 -435 0 -435 1245 0 1245 0 0 435 0 435 160 0 160 0 0 500 c0 394 -3 500 -12 499 -7 0 -51 -13 -98 -28z" />
    </g>
</svg>
